<svg xmlns="http://www.w3.org/2000/svg" width="100%" height="100%" viewBox="0 0 122.88 122.88">
  <!-- White outer ring -->
  <circle cx="61.44" cy="61.44" r="55.5" fill="none" stroke="#FFFFFF" stroke-width="7.4"/>

  <!-- Gray inner ring -->
  <circle cx="61.44" cy="61.44" r="50.4" fill="none" stroke="#6E6E6E" stroke-width="2.8"/>

  <!-- km changed to white; size and position kept -->
  <g id="km-mark" fill="#FFFFFF" transform="translate(21.8 37) scale(0.97 0.98)">
    <path d="M0 2.2H9V44H0Z M9 23.5L20.5 11H31L18.5 24.5L31.5 44H20.8L9 26.5Z"/>
    <path d="M35 44V11.5H44V15C46.4 12.1 49.6 10.7 53.3 10.7C58 10.7 61.2 12.6 63 16.1C65 12.6 68.4 10.7 72.5 10.7C79.4 10.7 83 15.2 83 23.8V44H74.4V24.9C74.4 20.7 73.1 18.7 69.9 18.7C66.5 18.7 64.8 21.1 64.8 25.4V44H57V24.9C57 20.7 55.7 18.7 52.3 18.7C48.7 18.7 46.9 21.1 46.9 25.4V44Z"/>
  </g>
</svg>
