<svg xmlns="http://www.w3.org/2000/svg" width="512" height="512" viewBox="0 0 512 512">
    <path
      fill="#fff"
      d="m2.45 350c-1.54-1.55-2.45-3.6-2.45-5.55s0.91-4 2.45-5.55l2.46-2.45h79.5 79.5l-2.86-4.25c-1.58-2.34-3.67-5.94-4.65-8l-1.79-3.75h-6.71-6.7l-13-10.4c-7.16-5.75-13.7-11.5-14.6-12.7-1.39-1.98-1.59-7.41-1.59-43.1v-40.8l2.45-2.46c2.03-2.02 3.45-2.45 8.07-2.45h5.61l-4.5-8h-7.36c-6.48 0-7.65-0.29-9.82-2.45-2.38-2.39-2.45-2.86-2.45-17.6s0.07-15.2 2.45-17.6c2.44-2.43 2.61-2.45 21.6-2.45s19.1 0.02 21.6 2.45c2.38 2.39 2.45 2.87 2.45 17.4 0 16.6-0.68 18.7-6.64 20l-3.1 0.67 2.39 3.75c3.23 5.09 5.69 4.89 16-1.32 35.8-21.6 81.7-34.9 120-34.9 37.9 0 76.6 14.8 107 41l8.37 7.23 17.1 1.29c9.43 0.7 24.8 1.81 34.1 2.46 10.4 0.72 19.6 1.92 23.6 3.09 19.4 5.58 32.9 23.9 32.9 44.6 0 3.27 0.39 4.36 1.55 4.36 0.85 0 2.65 1.1 4 2.45 2.43 2.44 2.45 2.61 2.45 21.6v19.1l-2.65 2.45c-2.61 2.42-2.87 2.45-21.4 2.45-17.6 0-18.8 0.12-19.4 1.9-0.33 1.05-2.38 4.65-4.54 8l-3.95 6.1h23.5 23.5l2.46 2.45c3.24 3.25 3.24 7.85 0 11.1l-2.46 2.45h-251-251l-2.46-2.45zm213-17.7c6.77-3.6 9.83-6.79 13.7-14.3 2.23-4.32 2.65-6.43 2.69-13.6.05-7.82-.22-9-3.37-14.8-3.8-7.02-6.95-10-14.5-14-4.36-2.27-6.36-2.66-13.6-2.66s-9.25.39-13.6 2.66c-7.53 3.91-10.7 6.94-14.4 14-3.12 5.77-3.4 7.02-3.38 14.8.02 7.22.42 9.27 2.68 13.6 3.77 7.27 6.84 10.6 12.9 13.8 7.05 3.84 10.2 4.53 18.1 4.06 5.18-.31 8.16-1.16 12.8-3.63zm170 .27c-1.53-2.12-3.63-5.72-4.66-8l-1.87-4.16h-66.7-66.7l-1.87 4.16c-1.03 2.28-3.13 5.88-4.66 8l-2.78 3.84h76 76l-2.78-3.84zm52 .59c11.6-5.29 18.3-15.8 18.3-28.8 0-12.7-6.22-22.7-17.8-28.7-4.46-2.31-6.46-2.71-13.7-2.74-7.02-.02-9.37.4-13.5 2.41-18.5 9.07-24.2 32.3-11.8 48.4 3.81 4.96 11.7 10.2 17.6 11.7 5.48 1.41 15 .33 20.9-2.35zm-284-35.9c3.21-20.7 19.9-37.2 40.8-40.2 25.5-3.68 49.7 14.5 53.7 40.3l1.09 7h63.6 63.6l1.2-7.56c3.18-20 19.5-36.3 39.7-39.7 25.2-4.32 50.3 13.9 54.7 39.8l1.25 7.46h11.8 11.8v-8-8h-3.81c-4.1 0-7.54-2.39-8.7-6.04-.79-2.49 1.1-7.59 3.1-8.36 1.89-.72 1.85-8.75-.08-15.2-2.82-9.49-11.4-18-20.5-20.3-1.94-.49-19.3-2.06-38.5-3.47-32-2.35-40.2-2.57-96.1-2.57h-61.1l-70.6-31.1-12.1 5.86c-6.67 3.23-15.9 8.3-20.6 11.3l-8.5 5.42-15.2.33-15.2.32v32.3 32.4l9.25 7.53c6 4.89 10.2 7.55 11.8 7.59 2.43.05 2.64-.35 3.68-7.12zm211-86.4c-9.51-6.66-26.9-15.3-38-19-10.4-3.41-24.7-6.19-36.2-7.06l-9.25-.7v16.2 16.1h45.7 45.7l-7.98-5.58zm-99.5-12v-13.6l-6.25.7c-7.66.86-22.9 3.92-30.4 6.09l-5.54 1.61 20.8 9.29c11.5 5.11 21 9.34 21.1 9.4s.25-6.01.25-13.5zm-128-18.4v-4h-8-8v4 4h8 8v-4zm-118 138c-1.54-1.55-2.45-3.6-2.45-5.55s.91-4 2.45-5.55l2.46-2.45h31.1 31.1l2.46 2.45c3.24 3.25 3.24 7.85 0 11.1l-2.46 2.45h-31.1-31.1l-2.46-2.45zm-16-32c-1.54-1.55-2.45-3.6-2.45-5.55s.91-4 2.45-5.55l2.46-2.45h47.1 47.1l2.46 2.45c3.24 3.25 3.24 7.85 0 11.1l-2.46 2.45h-47.1-47.1l-2.46-2.45zm16-32c-1.54-1.55-2.45-3.6-2.45-5.55s.91-4 2.45-5.55c2.14-2.13 3.37-2.45 9.36-2.45 5.94 0 7.27.34 9.54 2.45 3.46 3.2 3.54 7.75.2 11.1-2.15 2.14-3.35 2.45-9.55 2.45s-7.4-.31-9.55-2.45zm32 0c-1.54-1.55-2.45-3.6-2.45-5.55s.91-4 2.45-5.55l2.46-2.45h23.1 23.1l2.46 2.45c3.24 3.25 3.24 7.85 0 11.1l-2.46 2.45h-23.1-23.1l-2.46-2.45zm-48-32c-1.54-1.55-2.45-3.6-2.45-5.55s.91-4 2.45-5.55l2.46-2.45h26.9 26.9l2.64 2.45c3.46 3.2 3.54 7.75.2 11.1l-2.46 2.45h-27.1-27.1l-2.46-2.45zm190 105c-4.91-1.54-13.3-10.2-14.8-15.3-2.77-9.37-.82-16.8 6.25-23.9 10.2-10.2 24.4-10 33.8.52 9.3 10.3 9.01 22.8-.77 32.5-7.03 7.04-15.2 9.1-24.5 6.16zm13.6-17.1c4.96-4.96 1.44-13.6-5.55-13.6-7.12 0-10.6 8.72-5.35 13.6 3.44 3.19 7.71 3.18 10.9 0zm210 17.1c-5.06-1.61-13.6-10.3-14.9-15.2-2.52-9.25-.73-16.8 5.56-23.6 9.07-9.7 22.5-10.6 32.4-2.17 5.94 5.08 8.39 10.4 8.39 18.2 0 16.6-15.5 27.8-31.4 22.7zm12.1-16c4.42-3.4 4.73-8.94.71-12.7-4.71-4.39-12.8-.62-12.8 5.97 0 5.98 7.57 10.2 12.1 6.72z" />
</svg>
