<svg xmlns="http://www.w3.org/2000/svg" width="26" height="26" viewBox="0 0 26 26">
  <g transform="translate(13 13) scale(1.14) translate(-13 -13)">
    <path d="M175.081-708.286l1.323-5.92.984.261-1.272 5.659z" transform="translate(-254.411 698.409) rotate(7)" fill="#a4ec52"/>

    <path d="M3.413 2C2.851 2 2 3.116 2 4.798s.851 2.798 1.413 2.798 1.413-1.116 1.413-2.798S3.976 2 3.413 2m0-2c1.885 0 3.413 2.148 3.413 4.798s-1.528 4.798-3.413 4.798S0 7.448 0 4.798 1.528 0 3.413 0z" transform="translate(5.123 11.848) rotate(7)" fill="#c0c0c0"/>
    <path d="M3.413 2C2.851 2 2 3.116 2 4.798s.851 2.798 1.413 2.798 1.413-1.116 1.413-2.798S3.976 2 3.413 2m0-2c1.885 0 3.413 2.148 3.413 4.798s-1.528 4.798-3.413 4.798S0 7.448 0 4.798 1.528 0 3.413 0z" transform="translate(15.271 5.519) rotate(7)" fill="#c0c0c0"/>

    <path d="M0 7.222l.418-2.706.5-2.234 1.125-.182-.519 2.435L6.806 0s3.754 4.948 3.494 5.639a.609.609 0 0 1-.893.352l-2.183-3.8-1.295 5.922 3.252-3.034.223.912-4.191 4.1h-.821L1.107 6.114l.884-1.078L4.625 8.09l1.408-5.92-4.754 4.34-.192.732z" transform="translate(9.288 4.236) rotate(6)" fill="#a4ec52"/>
    <path d="M176.4-714.343l3.135.6-.984 5.811h-.751l.467-5.057-2.128-.443z" transform="translate(-254.485 698.408) rotate(7)" fill="#a4ec52"/>
    <path d="M175.053-719.2l7.181 1.556.311-.6-.311-.622-6.974-1.323-.389.44z" transform="translate(-255.125 698.527) rotate(7)" fill="#cacaca"/>
    <path d="M181.812-720.154c-.953-.258-.066-2.35 1.183-2.79s4.109.333 3.813 1.031-4.043 2.013-4.996 1.759z" transform="translate(-254.717 699.369) rotate(7)" fill="#a1886c"/>
    <path d="M182.979-712.457l1.507.5v1.914l.643.24.718-.24 1.709.526v.531l-1.213 1.137-1.655-.359v-1.077l-.7-.232-.12-1.922-1.179-.32v-.377z" transform="translate(-254.925 698.24) rotate(7)" fill="#c0c0c0"/>

    <rect width="3.89" height="1.695" rx=".847" transform="translate(12 6.62) rotate(18)" fill="#a1886c"/>
    <rect width="3.615" height="1.695" rx=".847" transform="translate(5.478 4.317) rotate(18)" fill="#a1886c"/>
  </g>
</svg>
