<svg xmlns="http://www.w3.org/2000/svg" width="28" height="28" viewBox="0 0 28 28">
  <g transform="translate(14 14) scale(1.14) translate(-14 -14)">
    <path d="M238.038-570.361l-1.9-.969s.853-2.628.969-2.28.931 3.249.931 3.249z" transform="translate(-218 586.984)" fill="#000"/>
    <path d="M232.058-565.029l-2.337-1.079 1.891-1.932z" transform="translate(-218.297 586.984)" fill="#000"/>

    <path d="M238.65-579.076l-6.21-2.944 4.005 4.939z" transform="translate(-215.846 587.984)" fill="#84e43d"/>
    <path d="M226.2-567.2l11.449-8.638v-3.869l-1.368.934-1.541-3.314-5.568 3.684-.993 4.48-2.073 2.125z" transform="translate(-214.846 588.617)" fill="#50951d"/>
    <path d="M219.05-571.283l8.146 4.7v-4.7l-8.146-4.294z" transform="translate(-215.846 587.984)" fill="#54b60b"/>
    <path d="M227.227-571.078l2.022-2.258-7.856-4.013-2.352 1.812z" transform="translate(-215.846 587.984)" fill="#84e43d"/>
    <path d="M221.368-577.263c.089-.179 1.989-4.047 1.989-4.047l6.964 3.48-1.1 4.61z" transform="translate(-215.846 587.984)" fill="#61819c"/>
    <path d="M223.357-581.3c.205-.237 5.687-2.961 5.687-2.961l6.718 2.8-5.462 3.661z" transform="translate(-215.846 587.984)" fill="#84e43d"/>
    <path d="M229.936-573.693l.861-3.927 3.716-2.349v3.035z" transform="translate(-215.846 587.984)" fill="#475f73"/>

    <path d="M219.309-573.69l2.053 1.1v1.874l-2.053-1.127z" transform="translate(-210.337 590.211)" fill="#d1f9ff"/>
    <path d="M219.309-573.69l2.053 1.1v1.874l-2.053-1.127z" transform="translate(-215.84 587.343)" fill="#d1f9ff"/>

    <path d="M1.687.024c.932.013 1.7 1.109 1.719 2.448s-.723 2.414-1.655 2.4S.049 3.763.032 2.424.755.011 1.687.024z" transform="matrix(.985 .174 -.174 .985 13.029 16.937)" fill="#808080"/>
    <path d="M1.687.024c.932.013 1.7 1.109 1.719 2.448s-.723 2.414-1.655 2.4S.049 3.763.032 2.424.755.011 1.687.024z" transform="translate(19.279 11.607) rotate(9)" fill="#808080"/>

    <path d="M1.7 1.236c-.2 0-.556.452-.546 1.2s.38 1.217.578 1.22.556-.452.546-1.2-.378-1.217-.578-1.22M1.687.024c.932.013 1.7 1.109 1.719 2.448s-.723 2.414-1.655 2.4S.049 3.763.032 2.424.755.011 1.687.024z" transform="matrix(.985 .174 -.174 .985 13.029 16.937)" fill="#2e3632"/>
    <path d="M1.7 1.236c-.2 0-.556.452-.546 1.2s.38 1.217.578 1.22.556-.452.546-1.2-.378-1.217-.578-1.22M1.687.024c.932.013 1.7 1.109 1.719 2.448s-.723 2.414-1.655 2.4S.049 3.763.032 2.424.755.011 1.687.024z" transform="translate(19.279 11.607) rotate(9)" fill="#2e3632"/>
  </g>
</svg>
