<svg xmlns="http://www.w3.org/2000/svg" width="100%" height="100%" viewBox="0 0 122.88 122.88">
  <!-- Red outer ring made a little thinner -->
  <g id="sign-base">
    <circle cx="61.44" cy="61.44" r="59.2" fill="#B9544D" stroke="#B9544D" stroke-width="3.2"/>

    <!-- Off-white area made bigger by increasing the inner circle radius -->
    <circle cx="61.44" cy="61.44" r="50.4" fill="#EFE7D6" stroke="#6E6E6E" stroke-width="2.8"/>
  </g>

  <!-- mi kept exactly the same size and position -->
  <g id="mi-mark" fill="#111111" transform="translate(25.0 36.9) scale(1.01 1.07)">
    <!-- lowercase m -->
    <path d="M0 44V11.5H9V15C11.4 12.1 14.6 10.7 18.3 10.7C23 10.7 26.2 12.6 28 16.1C30.5 12.6 34.2 10.7 38.8 10.7C46.3 10.7 50.2 15.2 50.2 23.8V44H41.2V24.9C41.2 20.7 39.8 18.7 36.4 18.7C32.8 18.7 31 21.1 31 25.4V44H22V24.9C22 20.7 20.7 18.7 17.3 18.7C13.7 18.7 11.9 21.1 11.9 25.4V44Z"/>

    <!-- lowercase i -->
    <rect x="59.5" y="11.5" width="10.8" height="32.5"/>
    <circle cx="64.9" cy="2.9" r="6.6"/>
  </g>
</svg>
