<svg xmlns="http://www.w3.org/2000/svg" width="100%" height="100%" viewBox="0 0 32 32">
  <!-- Expand / collapse all: arrow up + arrow down -->
  <g fill="#FFFFFF">
    <!-- Arrow up -->
    <g transform="translate(2.56 -5.30) scale(0.84)">
      <path transform="translate(-0.01284 -5.98952)" d="m6.877 24.58 7.823-8.18a1.764 1.764 0 0 1 1.3-0.529h0.023a1.764 1.764 0 0 1 1.307 0.533l7.819 8.176a2.324 2.324 0 0 1 0 3 1.91 1.91 0 0 1-2.638 0c-6.324-7.262-6.511-7.11-6.511-7.11s-0.064-0.053-6.489 7.106a1.91 1.91 0 0 1-2.638 0 2.324 2.324 0 0 1 4e-3 -2.996z"/>
    </g>

    <!-- Arrow down -->
    <g transform="translate(2.56 10.40) scale(0.84)">
      <path transform="translate(-0.014 -5.98598)" d="m6.877 19.4 7.823 8.172a1.764 1.764 0 0 0 1.3 0.528h0.023a1.764 1.764 0 0 0 1.307-0.533l7.823-8.167a2.324 2.324 0 0 0 0-3 1.91 1.91 0 0 0-2.638 0c-6.328 7.258-6.515 7.106-6.515 7.106s-0.064 0.053-6.489-7.106a1.91 1.91 0 0 0-2.638 0 2.324 2.324 0 0 0 4e-3 3z"/>
    </g>
  </g>
</svg>
