<svg xmlns="http://www.w3.org/2000/svg" width="100%" height="100%" viewBox="0 0 122.88 122.88">
  <!-- Red outer ring made a little thinner -->
  <g id="sign-base">
    <circle cx="61.44" cy="61.44" r="59.2" fill="#B9544D" stroke="#B9544D" stroke-width="3.2"/>
    
    <!-- Off-white area made bigger by increasing the inner circle radius -->
    <circle cx="61.44" cy="61.44" r="50.4" fill="#EFE7D6" stroke="#6E6E6E" stroke-width="2.8"/>
  </g>

  <!-- km kept exactly the same size and position -->
  <g id="km-mark" fill="#111111" transform="translate(21.8 37) scale(0.97 0.98)">
    <path d="M0 2.2H9V44H0Z M9 23.5L20.5 11H31L18.5 24.5L31.5 44H20.8L9 26.5Z"/>
    <path d="M35 44V11.5H44V15C46.4 12.1 49.6 10.7 53.3 10.7C58 10.7 61.2 12.6 63 16.1C65 12.6 68.4 10.7 72.5 10.7C79.4 10.7 83 15.2 83 23.8V44H74.4V24.9C74.4 20.7 73.1 18.7 69.9 18.7C66.5 18.7 64.8 21.1 64.8 25.4V44H57V24.9C57 20.7 55.7 18.7 52.3 18.7C48.7 18.7 46.9 21.1 46.9 25.4V44Z"/>
  </g>
</svg>
