<svg xmlns="http://www.w3.org/2000/svg" width="100%" height="100%" viewBox="0 0 122.88 122.88">
  <!-- White outer ring -->
  <circle cx="61.44" cy="61.44" r="55.5" fill="none" stroke="#FFFFFF" stroke-width="7.4"/>

  <!-- Gray inner ring -->
  <circle cx="61.44" cy="61.44" r="50.4" fill="none" stroke="#6E6E6E" stroke-width="2.8"/>

  <!-- Lowercase a drawn as a path, centered in the gray ring -->
  <path
    fill="#FFFFFF"
    transform="translate(32.803 85.891) scale(0.014 -0.014)"
    d="M 2106 1575 Q 1756 1575 1579 1456 Q 1403 1338 1403 1106 Q 1403 894 1545 773 Q 1688 653 1941 653 Q 2256 653 2472 879 Q 2688 1106 2688 1447 L 2688 1575 L 2106 1575 z M 3816 1997 L 3816 0 L 2688 0 L 2688 519 Q 2463 200 2181 54 Q 1900 -91 1497 -91 Q 953 -91 614 226 Q 275 544 275 1050 Q 275 1666 698 1953 Q 1122 2241 2028 2241 L 2688 2241 L 2688 2328 Q 2688 2594 2478 2717 Q 2269 2841 1825 2841 Q 1466 2841 1156 2769 Q 847 2697 581 2553 L 581 3406 Q 941 3494 1303 3539 Q 1666 3584 2028 3584 Q 2975 3584 3395 3211 Q 3816 2838 3816 1997 z"
  />
</svg>
